<svg width="320" height="320" viewBox="0 0 320 320" fill="none" xmlns="http://www.w3.org/2000/svg">
  <g opacity="0.95">
    <path d="M247 64C252 98 232 132 199 143C192 105 213 70 247 64Z" fill="#C57A8C"/>
    <path d="M215 88C223 118 209 148 182 164C168 132 182 100 215 88Z" fill="#E8B8C3"/>
    <path d="M273 105C277 130 264 156 242 169C231 144 242 116 273 105Z" fill="#9A5E48"/>
    <path d="M233 169C261 176 278 200 276 228C246 225 225 204 233 169Z" fill="#B16E7F"/>
    <path d="M194 169C223 169 245 188 248 218C216 220 191 204 194 169Z" fill="#D89CAA"/>
    <path d="M264 214C280 233 282 258 270 279C248 267 239 245 264 214Z" fill="#8C5B46"/>
    <path d="M219 216C239 229 247 251 242 274C217 265 205 244 219 216Z" fill="#C98898"/>
    <path d="M287 162C300 178 303 198 296 218C276 208 266 188 287 162Z" fill="#EBC6D0"/>
    <path d="M160 130C173 135 181 147 182 161C167 161 155 153 160 130Z" fill="#B4735E"/>
    <path d="M180 238C190 246 193 258 190 271C177 266 171 255 180 238Z" fill="#A3654F"/>
  </g>
</svg>
