<svg width="320" height="320" viewBox="0 0 320 320" fill="none" xmlns="http://www.w3.org/2000/svg">
  <g opacity="0.92">
    <path d="M251 66C254 98 236 126 206 136C198 103 217 73 251 66Z" fill="#F7DDE4"/>
    <path d="M217 90C222 118 209 143 185 157C173 129 184 102 217 90Z" fill="#F3C7D4"/>
    <path d="M275 108C278 132 266 154 246 165C236 142 246 117 275 108Z" fill="#ECCFD8"/>
    <path d="M234 167C261 171 280 191 281 216C251 216 229 198 234 167Z" fill="#F6E6EB"/>
    <path d="M198 171C223 169 244 184 250 207C222 212 199 199 198 171Z" fill="#FBEFF3"/>
    <path d="M267 212C282 227 287 249 278 270C256 262 244 243 267 212Z" fill="#F3D7DF"/>
    <path d="M225 214C244 224 255 243 252 264C228 259 212 243 225 214Z" fill="#FAEDF1"/>
    <path d="M289 160C302 175 307 194 302 212C281 203 269 186 289 160Z" fill="#F7E4EA"/>
    <path d="M162 131C175 136 183 147 184 161C169 161 156 153 162 131Z" fill="#EAC8D2"/>
    <path d="M181 237C190 245 194 256 191 269C179 265 172 254 181 237Z" fill="#F2D6DE"/>
  </g>
</svg>
